<svg width="16" height="17" viewBox="0 0 16 17" fill="none" xmlns="http://www.w3.org/2000/svg">
<path d="M2.5 8.00195C2.63261 8.00195 2.75979 7.94927 2.85355 7.85551C2.94732 7.76174 3 7.63456 3 7.50195C3 7.36934 2.94732 7.24217 2.85355 7.1484C2.75979 7.05463 2.63261 7.00195 2.5 7.00195C2.36739 7.00195 2.24021 7.05463 2.14645 7.1484C2.05268 7.24217 2 7.36934 2 7.50195C2 7.63456 2.05268 7.76174 2.14645 7.85551C2.24021 7.94927 2.36739 8.00195 2.5 8.00195Z" fill="#212529"/>
<path d="M5 1.00195C4.46957 1.00195 3.96086 1.21267 3.58579 1.58774C3.21071 1.96281 3 2.47152 3 3.00195V5.00195H2C1.46957 5.00195 0.960859 5.21267 0.585786 5.58774C0.210714 5.96281 0 6.47152 0 7.00195V10.002C0 10.5324 0.210714 11.0411 0.585786 11.4162C0.960859 11.7912 1.46957 12.002 2 12.002H3V13.002C3 13.5324 3.21071 14.0411 3.58579 14.4162C3.96086 14.7912 4.46957 15.002 5 15.002H11C11.5304 15.002 12.0391 14.7912 12.4142 14.4162C12.7893 14.0411 13 13.5324 13 13.002V12.002H14C14.5304 12.002 15.0391 11.7912 15.4142 11.4162C15.7893 11.0411 16 10.5324 16 10.002V7.00195C16 6.47152 15.7893 5.96281 15.4142 5.58774C15.0391 5.21267 14.5304 5.00195 14 5.00195H13V3.00195C13 2.47152 12.7893 1.96281 12.4142 1.58774C12.0391 1.21267 11.5304 1.00195 11 1.00195H5ZM4 3.00195C4 2.73674 4.10536 2.48238 4.29289 2.29485C4.48043 2.10731 4.73478 2.00195 5 2.00195H11C11.2652 2.00195 11.5196 2.10731 11.7071 2.29485C11.8946 2.48238 12 2.73674 12 3.00195V5.00195H4V3.00195ZM5 8.00195C4.46957 8.00195 3.96086 8.21267 3.58579 8.58774C3.21071 8.96281 3 9.47152 3 10.002V11.002H2C1.73478 11.002 1.48043 10.8966 1.29289 10.7091C1.10536 10.5215 1 10.2672 1 10.002V7.00195C1 6.73674 1.10536 6.48238 1.29289 6.29485C1.48043 6.10731 1.73478 6.00195 2 6.00195H14C14.2652 6.00195 14.5196 6.10731 14.7071 6.29485C14.8946 6.48238 15 6.73674 15 7.00195V10.002C15 10.2672 14.8946 10.5215 14.7071 10.7091C14.5196 10.8966 14.2652 11.002 14 11.002H13V10.002C13 9.47152 12.7893 8.96281 12.4142 8.58774C12.0391 8.21267 11.5304 8.00195 11 8.00195H5ZM12 10.002V13.002C12 13.2672 11.8946 13.5215 11.7071 13.7091C11.5196 13.8966 11.2652 14.002 11 14.002H5C4.73478 14.002 4.48043 13.8966 4.29289 13.7091C4.10536 13.5215 4 13.2672 4 13.002V10.002C4 9.73674 4.10536 9.48238 4.29289 9.29485C4.48043 9.10731 4.73478 9.00195 5 9.00195H11C11.2652 9.00195 11.5196 9.10731 11.7071 9.29485C11.8946 9.48238 12 9.73674 12 10.002Z" fill="#212529"/>
</svg>
